<svg width="917" height="20" viewBox="0 0 917 103" fill="none" xmlns="http://www.w3.org/2000/svg">
<path d="M14.7055 79.0635C13.2388 79.0635 12.0055 78.5635 11.0055 77.5635C10.0721 76.5635 9.60547 75.3635 9.60547 73.9635V24.6635C9.60547 19.6635 10.5721 15.3635 12.5055 11.7635C14.5055 8.09681 17.6055 5.26347 21.8055 3.26347C26.0721 1.26347 31.5721 0.263472 38.3055 0.263472C41.5055 0.263472 44.2721 0.63014 46.6055 1.36348C49.0055 2.09681 50.8721 3.09681 52.2055 4.36347C53.5388 5.63014 54.2055 7.13014 54.2055 8.86347C54.2055 11.7968 52.4055 13.2635 48.8055 13.2635C47.4055 13.2635 46.1388 12.9635 45.0055 12.3635C43.9388 11.7635 42.8721 11.0635 41.8055 10.2635C40.7388 9.46347 39.6055 8.76347 38.4055 8.16347C37.2055 7.56347 35.8055 7.26347 34.2055 7.26347C31.7388 7.26347 29.4055 7.76347 27.2055 8.76348C25.0055 9.69681 23.2055 11.4301 21.8055 13.9635C20.4721 16.4968 19.8055 20.0635 19.8055 24.6635V73.9635C19.8055 75.3635 19.3055 76.5635 18.3055 77.5635C17.3721 78.5635 16.1721 79.0635 14.7055 79.0635ZM5.30547 34.9635C3.90547 34.9635 2.77214 34.5635 1.90547 33.7635C1.0388 32.9635 0.605469 31.9635 0.605469 30.7635C0.605469 29.4301 1.0388 28.3635 1.90547 27.5635C2.77214 26.7635 3.90547 26.3635 5.30547 26.3635H30.1055C31.5055 26.3635 32.6388 26.7635 33.5055 27.5635C34.3721 28.3635 34.8055 29.4301 34.8055 30.7635C34.8055 31.9635 34.3721 32.9635 33.5055 33.7635C32.6388 34.5635 31.5055 34.9635 30.1055 34.9635H5.30547ZM48.0055 79.0635C46.5388 79.0635 45.3055 78.5968 44.3055 77.6635C43.3721 76.6635 42.9055 75.4301 42.9055 73.9635V29.4635C42.9055 27.9301 43.3721 26.6968 44.3055 25.7635C45.3055 24.8301 46.5388 24.3635 48.0055 24.3635C49.5388 24.3635 50.7721 24.8301 51.7055 25.7635C52.6388 26.6968 53.1055 27.9301 53.1055 29.4635V73.9635C53.1055 75.4301 52.6388 76.6635 51.7055 77.6635C50.7721 78.5968 49.5388 79.0635 48.0055 79.0635ZM96.1914 78.9635C94.1247 78.9635 92.5247 77.8635 91.3914 75.6635L70.1914 30.9635C69.6581 29.8301 69.5914 28.7301 69.9914 27.6635C70.4581 26.5301 71.3247 25.6635 72.5914 25.0635C73.7247 24.4635 74.8581 24.3635 75.9914 24.7635C77.1914 25.1635 78.0914 25.9301 78.6914 27.0635L98.4914 69.7635H93.6914L113.291 27.0635C113.891 25.9301 114.791 25.1635 115.991 24.7635C117.258 24.3635 118.525 24.4635 119.791 25.0635C120.991 25.5968 121.791 26.4301 122.191 27.5635C122.591 28.6968 122.525 29.8301 121.991 30.9635L100.791 75.6635C99.7914 77.8635 98.2581 78.9635 96.1914 78.9635ZM162.223 79.4635C156.69 79.4635 151.757 78.2968 147.423 75.9635C143.157 73.5635 139.79 70.2968 137.323 66.1635C134.923 61.9635 133.723 57.1635 133.723 51.7635C133.723 46.2968 134.857 41.4968 137.123 37.3635C139.457 33.1635 142.657 29.8968 146.723 27.5635C150.79 25.1635 155.457 23.9635 160.723 23.9635C165.923 23.9635 170.39 25.1301 174.123 27.4635C177.857 29.7301 180.69 32.8968 182.623 36.9635C184.623 40.9635 185.623 45.5968 185.623 50.8635C185.623 52.1301 185.19 53.1968 184.323 54.0635C183.457 54.8635 182.357 55.2635 181.023 55.2635H140.723V47.2635H180.723L176.623 50.0635C176.557 46.7301 175.89 43.7635 174.623 41.1635C173.357 38.4968 171.557 36.3968 169.223 34.8635C166.89 33.3301 164.057 32.5635 160.723 32.5635C156.923 32.5635 153.657 33.3968 150.923 35.0635C148.257 36.7301 146.223 39.0301 144.823 41.9635C143.423 44.8301 142.723 48.0968 142.723 51.7635C142.723 55.4301 143.557 58.6968 145.223 61.5635C146.89 64.4301 149.19 66.6968 152.123 68.3635C155.057 70.0301 158.423 70.8635 162.223 70.8635C164.29 70.8635 166.39 70.4968 168.523 69.7635C170.723 68.9635 172.49 68.0635 173.823 67.0635C174.823 66.3301 175.89 65.9635 177.023 65.9635C178.223 65.8968 179.257 66.2301 180.123 66.9635C181.257 67.9635 181.857 69.0635 181.923 70.2635C181.99 71.4635 181.457 72.4968 180.323 73.3635C178.057 75.1635 175.223 76.6301 171.823 77.7635C168.49 78.8968 165.29 79.4635 162.223 79.4635Z" fill="#14A0CC"/>
<path d="M204.333 56.7635C202.866 56.7635 201.633 56.2968 200.633 55.3635C199.699 54.4301 199.233 53.2301 199.233 51.7635C199.233 50.2301 199.699 48.9968 200.633 48.0635C201.633 47.1301 202.866 46.6635 204.333 46.6635H226.633C228.099 46.6635 229.299 47.1301 230.233 48.0635C231.166 48.9968 231.633 50.2301 231.633 51.7635C231.633 53.2301 231.166 54.4301 230.233 55.3635C229.299 56.2968 228.099 56.7635 226.633 56.7635H204.333ZM254.795 102.463C253.329 102.463 252.095 101.963 251.095 100.963C250.162 100.03 249.695 98.8301 249.695 97.3635V51.7635C249.762 46.4968 250.995 41.7635 253.395 37.5635C255.795 33.3635 259.062 30.0635 263.195 27.6635C267.329 25.1968 271.995 23.9635 277.195 23.9635C282.462 23.9635 287.162 25.1968 291.295 27.6635C295.429 30.0635 298.695 33.3635 301.095 37.5635C303.562 41.7635 304.795 46.4968 304.795 51.7635C304.795 57.0301 303.662 61.7635 301.395 65.9635C299.195 70.0968 296.162 73.3968 292.295 75.8635C288.429 78.2635 284.062 79.4635 279.195 79.4635C275.262 79.4635 271.629 78.6635 268.295 77.0635C265.029 75.3968 262.229 73.1635 259.895 70.3635V97.3635C259.895 98.8301 259.429 100.03 258.495 100.963C257.562 101.963 256.329 102.463 254.795 102.463ZM277.195 70.4635C280.595 70.4635 283.629 69.6635 286.295 68.0635C288.962 66.3968 291.062 64.1635 292.595 61.3635C294.195 58.4968 294.995 55.2968 294.995 51.7635C294.995 48.1635 294.195 44.9635 292.595 42.1635C291.062 39.2968 288.962 37.0635 286.295 35.4635C283.629 33.7968 280.595 32.9635 277.195 32.9635C273.862 32.9635 270.829 33.7968 268.095 35.4635C265.429 37.0635 263.329 39.2968 261.795 42.1635C260.262 44.9635 259.495 48.1635 259.495 51.7635C259.495 55.2968 260.262 58.4968 261.795 61.3635C263.329 64.1635 265.429 66.3968 268.095 68.0635C270.829 69.6635 273.862 70.4635 277.195 70.4635ZM350.808 79.4635C345.408 79.4635 340.641 78.2968 336.508 75.9635C332.374 73.5635 329.108 70.2968 326.708 66.1635C324.374 61.9635 323.208 57.1635 323.208 51.7635C323.208 46.2968 324.374 41.4968 326.708 37.3635C329.108 33.1635 332.374 29.8968 336.508 27.5635C340.641 25.1635 345.408 23.9635 350.808 23.9635C356.141 23.9635 360.874 25.1635 365.008 27.5635C369.141 29.8968 372.374 33.1635 374.708 37.3635C377.108 41.4968 378.308 46.2968 378.308 51.7635C378.308 57.1635 377.141 61.9635 374.808 66.1635C372.474 70.2968 369.241 73.5635 365.108 75.9635C360.974 78.2968 356.208 79.4635 350.808 79.4635ZM350.808 70.4635C354.274 70.4635 357.341 69.6635 360.008 68.0635C362.674 66.4635 364.741 64.2635 366.208 61.4635C367.741 58.6635 368.508 55.4301 368.508 51.7635C368.508 48.0968 367.741 44.8635 366.208 42.0635C364.741 39.1968 362.674 36.9635 360.008 35.3635C357.341 33.7635 354.274 32.9635 350.808 32.9635C347.341 32.9635 344.274 33.7635 341.608 35.3635C338.941 36.9635 336.841 39.1968 335.308 42.0635C333.774 44.8635 333.008 48.0968 333.008 51.7635C333.008 55.4301 333.774 58.6635 335.308 61.4635C336.841 64.2635 338.941 66.4635 341.608 68.0635C344.274 69.6635 347.341 70.4635 350.808 70.4635ZM405.588 79.0635C404.122 79.0635 402.888 78.5968 401.888 77.6635C400.955 76.6635 400.488 75.4301 400.488 73.9635V29.4635C400.488 27.9301 400.955 26.6968 401.888 25.7635C402.888 24.8301 404.122 24.3635 405.588 24.3635C407.122 24.3635 408.355 24.8301 409.288 25.7635C410.222 26.6968 410.688 27.9301 410.688 29.4635V73.9635C410.688 75.4301 410.222 76.6635 409.288 77.6635C408.355 78.5968 407.122 79.0635 405.588 79.0635ZM405.588 15.4635C403.788 15.4635 402.222 14.8301 400.888 13.5635C399.622 12.2301 398.988 10.6635 398.988 8.86347C398.988 7.06347 399.622 5.53014 400.888 4.26347C402.222 2.93014 403.788 2.26348 405.588 2.26348C407.388 2.26348 408.922 2.93014 410.188 4.26347C411.522 5.53014 412.188 7.06347 412.188 8.86347C412.188 10.6635 411.522 12.2301 410.188 13.5635C408.922 14.8301 407.388 15.4635 405.588 15.4635ZM481.864 79.1635C480.397 79.1635 479.164 78.6968 478.164 77.7635C477.231 76.7635 476.764 75.5301 476.764 74.0635V49.4635C476.764 45.6635 476.064 42.5635 474.664 40.1635C473.264 37.7635 471.364 35.9968 468.964 34.8635C466.631 33.6635 463.931 33.0635 460.864 33.0635C458.064 33.0635 455.531 33.6301 453.264 34.7635C450.997 35.8968 449.197 37.4301 447.864 39.3635C446.531 41.2301 445.864 43.3968 445.864 45.8635H439.564C439.564 41.6635 440.564 37.9301 442.564 34.6635C444.631 31.3301 447.431 28.6968 450.964 26.7635C454.497 24.8301 458.464 23.8635 462.864 23.8635C467.464 23.8635 471.564 24.8635 475.164 26.8635C478.831 28.7968 481.697 31.6635 483.764 35.4635C485.897 39.2635 486.964 43.9301 486.964 49.4635V74.0635C486.964 75.5301 486.464 76.7635 485.464 77.7635C484.531 78.6968 483.331 79.1635 481.864 79.1635ZM440.764 79.1635C439.297 79.1635 438.064 78.6968 437.064 77.7635C436.131 76.7635 435.664 75.5301 435.664 74.0635V29.4635C435.664 27.9301 436.131 26.6968 437.064 25.7635C438.064 24.8301 439.297 24.3635 440.764 24.3635C442.297 24.3635 443.531 24.8301 444.464 25.7635C445.397 26.6968 445.864 27.9301 445.864 29.4635V74.0635C445.864 75.5301 445.397 76.7635 444.464 77.7635C443.531 78.6968 442.297 79.1635 440.764 79.1635ZM529.728 79.0635C526.395 79.0635 523.395 78.2301 520.728 76.5635C518.061 74.8301 515.961 72.4968 514.428 69.5635C512.895 66.6301 512.128 63.3301 512.128 59.6635V11.9635C512.128 10.4968 512.595 9.29681 513.528 8.36347C514.461 7.43014 515.661 6.96347 517.128 6.96347C518.595 6.96347 519.795 7.43014 520.728 8.36347C521.661 9.29681 522.128 10.4968 522.128 11.9635V59.6635C522.128 62.3301 522.861 64.5635 524.328 66.3635C525.795 68.1635 527.595 69.0635 529.728 69.0635H533.128C534.328 69.0635 535.328 69.5301 536.128 70.4635C536.995 71.3968 537.428 72.5968 537.428 74.0635C537.428 75.5301 536.861 76.7301 535.728 77.6635C534.661 78.5968 533.261 79.0635 531.528 79.0635H529.728ZM507.528 34.9635C506.128 34.9635 504.995 34.5635 504.128 33.7635C503.261 32.9635 502.828 31.9635 502.828 30.7635C502.828 29.4301 503.261 28.3635 504.128 27.5635C504.995 26.7635 506.128 26.3635 507.528 26.3635H530.628C532.028 26.3635 533.161 26.7635 534.028 27.5635C534.895 28.3635 535.328 29.4301 535.328 30.7635C535.328 31.9635 534.895 32.9635 534.028 33.7635C533.161 34.5635 532.028 34.9635 530.628 34.9635H507.528ZM555.665 56.7635C554.198 56.7635 552.965 56.2968 551.965 55.3635C551.032 54.4301 550.565 53.2301 550.565 51.7635C550.565 50.2301 551.032 48.9968 551.965 48.0635C552.965 47.1301 554.198 46.6635 555.665 46.6635H577.965C579.432 46.6635 580.632 47.1301 581.565 48.0635C582.498 48.9968 582.965 50.2301 582.965 51.7635C582.965 53.2301 582.498 54.4301 581.565 55.3635C580.632 56.2968 579.432 56.7635 577.965 56.7635H555.665Z" fill="#9C9C9C" fill-opacity="0.7"/>
<path d="M625.827 79.4635C620.494 79.4635 615.727 78.2635 611.527 75.8635C607.394 73.3968 604.127 70.0968 601.727 65.9635C599.394 61.7635 598.227 57.0301 598.227 51.7635C598.227 46.3635 599.394 41.5635 601.727 37.3635C604.061 33.1635 607.261 29.8968 611.327 27.5635C615.394 25.1635 620.061 23.9635 625.327 23.9635C629.261 23.9635 632.861 24.7301 636.127 26.2635C639.394 27.7301 642.327 29.9635 644.927 32.9635C645.861 34.0301 646.194 35.1301 645.927 36.2635C645.661 37.3968 644.927 38.3968 643.727 39.2635C642.794 39.9301 641.761 40.1635 640.627 39.9635C639.494 39.6968 638.461 39.0968 637.527 38.1635C634.261 34.6968 630.194 32.9635 625.327 32.9635C621.927 32.9635 618.927 33.7635 616.327 35.3635C613.727 36.8968 611.694 39.0635 610.227 41.8635C608.761 44.6635 608.027 47.9635 608.027 51.7635C608.027 55.3635 608.761 58.5635 610.227 61.3635C611.761 64.1635 613.861 66.3968 616.527 68.0635C619.194 69.6635 622.294 70.4635 625.827 70.4635C628.161 70.4635 630.194 70.1968 631.927 69.6635C633.727 69.0635 635.361 68.1635 636.827 66.9635C637.894 66.0968 638.994 65.6301 640.127 65.5635C641.261 65.4301 642.261 65.7301 643.127 66.4635C644.261 67.3968 644.894 68.4635 645.027 69.6635C645.161 70.7968 644.761 71.8301 643.827 72.7635C639.027 77.2301 633.027 79.4635 625.827 79.4635ZM672.186 59.1635C670.719 59.1635 669.486 58.6968 668.486 57.7635C667.553 56.7635 667.086 55.5301 667.086 54.0635V6.06347C667.086 4.53014 667.553 3.29681 668.486 2.36347C669.486 1.43014 670.719 0.963475 672.186 0.963475C673.719 0.963475 674.953 1.43014 675.886 2.36347C676.819 3.29681 677.286 4.53014 677.286 6.06347V54.0635C677.286 55.5301 676.819 56.7635 675.886 57.7635C674.953 58.6968 673.719 59.1635 672.186 59.1635ZM713.286 79.1635C711.819 79.1635 710.586 78.6968 709.586 77.7635C708.653 76.7635 708.186 75.5301 708.186 74.0635V49.4635C708.186 45.6635 707.486 42.5635 706.086 40.1635C704.686 37.7635 702.786 35.9968 700.386 34.8635C698.053 33.6635 695.353 33.0635 692.286 33.0635C689.486 33.0635 686.953 33.6301 684.686 34.7635C682.419 35.8968 680.619 37.4301 679.286 39.3635C677.953 41.2301 677.286 43.3968 677.286 45.8635H670.986C670.986 41.6635 671.986 37.9301 673.986 34.6635C676.053 31.3301 678.853 28.6968 682.386 26.7635C685.919 24.8301 689.886 23.8635 694.286 23.8635C698.886 23.8635 702.986 24.8635 706.586 26.8635C710.253 28.7968 713.119 31.6635 715.186 35.4635C717.319 39.2635 718.386 43.9301 718.386 49.4635V74.0635C718.386 75.5301 717.886 76.7635 716.886 77.7635C715.953 78.6968 714.753 79.1635 713.286 79.1635ZM672.186 79.1635C670.719 79.1635 669.486 78.6968 668.486 77.7635C667.553 76.7635 667.086 75.5301 667.086 74.0635V29.4635C667.086 27.9301 667.553 26.6968 668.486 25.7635C669.486 24.8301 670.719 24.3635 672.186 24.3635C673.719 24.3635 674.953 24.8301 675.886 25.7635C676.819 26.6968 677.286 27.9301 677.286 29.4635V74.0635C677.286 75.5301 676.819 76.7635 675.886 77.7635C674.953 78.6968 673.719 79.1635 672.186 79.1635ZM767.048 79.4635C761.514 79.4635 756.581 78.2968 752.248 75.9635C747.981 73.5635 744.614 70.2968 742.148 66.1635C739.748 61.9635 738.548 57.1635 738.548 51.7635C738.548 46.2968 739.681 41.4968 741.948 37.3635C744.281 33.1635 747.481 29.8968 751.548 27.5635C755.614 25.1635 760.281 23.9635 765.548 23.9635C770.748 23.9635 775.214 25.1301 778.948 27.4635C782.681 29.7301 785.514 32.8968 787.448 36.9635C789.448 40.9635 790.448 45.5968 790.448 50.8635C790.448 52.1301 790.014 53.1968 789.148 54.0635C788.281 54.8635 787.181 55.2635 785.848 55.2635H745.548V47.2635H785.548L781.448 50.0635C781.381 46.7301 780.714 43.7635 779.448 41.1635C778.181 38.4968 776.381 36.3968 774.048 34.8635C771.714 33.3301 768.881 32.5635 765.548 32.5635C761.748 32.5635 758.481 33.3968 755.748 35.0635C753.081 36.7301 751.048 39.0301 749.648 41.9635C748.248 44.8301 747.548 48.0968 747.548 51.7635C747.548 55.4301 748.381 58.6968 750.048 61.5635C751.714 64.4301 754.014 66.6968 756.948 68.3635C759.881 70.0301 763.248 70.8635 767.048 70.8635C769.114 70.8635 771.214 70.4968 773.348 69.7635C775.548 68.9635 777.314 68.0635 778.648 67.0635C779.648 66.3301 780.714 65.9635 781.848 65.9635C783.048 65.8968 784.081 66.2301 784.948 66.9635C786.081 67.9635 786.681 69.0635 786.748 70.2635C786.814 71.4635 786.281 72.4968 785.148 73.3635C782.881 75.1635 780.048 76.6301 776.648 77.7635C773.314 78.8968 770.114 79.4635 767.048 79.4635ZM832.304 79.4635C826.971 79.4635 822.204 78.2635 818.004 75.8635C813.871 73.3968 810.604 70.0968 808.204 65.9635C805.871 61.7635 804.704 57.0301 804.704 51.7635C804.704 46.3635 805.871 41.5635 808.204 37.3635C810.537 33.1635 813.737 29.8968 817.804 27.5635C821.871 25.1635 826.537 23.9635 831.804 23.9635C835.737 23.9635 839.337 24.7301 842.604 26.2635C845.871 27.7301 848.804 29.9635 851.404 32.9635C852.337 34.0301 852.671 35.1301 852.404 36.2635C852.137 37.3968 851.404 38.3968 850.204 39.2635C849.271 39.9301 848.237 40.1635 847.104 39.9635C845.971 39.6968 844.937 39.0968 844.004 38.1635C840.737 34.6968 836.671 32.9635 831.804 32.9635C828.404 32.9635 825.404 33.7635 822.804 35.3635C820.204 36.8968 818.171 39.0635 816.704 41.8635C815.237 44.6635 814.504 47.9635 814.504 51.7635C814.504 55.3635 815.237 58.5635 816.704 61.3635C818.237 64.1635 820.337 66.3968 823.004 68.0635C825.671 69.6635 828.771 70.4635 832.304 70.4635C834.637 70.4635 836.671 70.1968 838.404 69.6635C840.204 69.0635 841.837 68.1635 843.304 66.9635C844.371 66.0968 845.471 65.6301 846.604 65.5635C847.737 65.4301 848.737 65.7301 849.604 66.4635C850.737 67.3968 851.371 68.4635 851.504 69.6635C851.637 70.7968 851.237 71.8301 850.304 72.7635C845.504 77.2301 839.504 79.4635 832.304 79.4635ZM883.163 59.0635L876.963 52.2635L907.663 24.8635C908.663 23.9301 909.763 23.4968 910.963 23.5635C912.229 23.6301 913.296 24.1635 914.163 25.1635C915.096 26.1635 915.529 27.2635 915.463 28.4635C915.396 29.6635 914.863 30.7301 913.863 31.6635L883.163 59.0635ZM878.463 79.0635C876.996 79.0635 875.796 78.6301 874.863 77.7635C873.996 76.8301 873.563 75.6301 873.563 74.1635V5.86347C873.563 4.39681 873.996 3.23014 874.863 2.36347C875.796 1.43014 876.996 0.963475 878.463 0.963475C879.929 0.963475 881.096 1.43014 881.963 2.36347C882.896 3.23014 883.363 4.39681 883.363 5.86347V74.1635C883.363 75.6301 882.896 76.8301 881.963 77.7635C881.096 78.6301 879.929 79.0635 878.463 79.0635ZM914.163 78.5635C913.096 79.4301 911.896 79.7968 910.563 79.6635C909.296 79.5968 908.229 79.0301 907.363 77.9635L887.063 52.8635L894.063 46.2635L914.863 71.8635C915.729 72.9301 916.096 74.0968 915.962 75.3635C915.896 76.5635 915.296 77.6301 914.163 78.5635Z" fill="#4FA771"/>
</svg>
